HIERARCHY
ROOT Hips
{
  OFFSET 124.075 102.079 -29.8065
  CHANNELS 6 Xposition Yposition Zposition Zrotation Xrotation Yrotation
  JOINT Spine
  {
    OFFSET 0 6.79576 0
    CHANNELS 6 Xposition Yposition Zposition Zrotation Xrotation Yrotation
    JOINT Spine1
    {
      OFFSET 0 6.79575 0
      CHANNELS 6 Xposition Yposition Zposition Zrotation Xrotation Yrotation
      JOINT Spine2
      {
        OFFSET 0 6.79576 0
        CHANNELS 6 Xposition Yposition Zposition Zrotation Xrotation Yrotation
        JOINT Spine3
        {
          OFFSET 0 6.79575 0
          CHANNELS 6 Xposition Yposition Zposition Zrotation Xrotation Yrotation
          JOINT Neck
          {
            OFFSET 6.40019e-05 14.441 4.93624e-05
            CHANNELS 6 Xposition Yposition Zposition Zrotation Xrotation Yrotation
            JOINT Head
            {
              OFFSET 0 9.17427 0
              CHANNELS 6 Xposition Yposition Zposition Zrotation Xrotation Yrotation
              End Site
              {
                OFFSET 0 17.2017 0
              }
            }
          }
          JOINT LeftShoulder
          {
            OFFSET 5.00008 17 -3.58215e-05
            CHANNELS 6 Xposition Yposition Zposition Zrotation Xrotation Yrotation
            JOINT LeftShoulder2
            {
              OFFSET 6.5 0 0
              CHANNELS 6 Xposition Yposition Zposition Zrotation Xrotation Yrotation
              JOINT LeftArm
              {
                OFFSET 6.50001 0 -0.000216613
                CHANNELS 6 Xposition Yposition Zposition Zrotation Xrotation Yrotation
                JOINT LeftForeArm
                {
                  OFFSET 0 -37.9535 -2
                  CHANNELS 6 Xposition Yposition Zposition Zrotation Xrotation Yrotation
                  JOINT LeftHand
                  {
                    OFFSET 0 -30.0465 2
                    CHANNELS 6 Xposition Yposition Zposition Zrotation Xrotation Yrotation
                    JOINT LeftHandThumb1
                    {
                      OFFSET -0.500015 -1.5 2.65001
                      CHANNELS 6 Xposition Yposition Zposition Zrotation Xrotation Yrotation
                      JOINT LeftHandThumb2
                      {
                        OFFSET 1.41001e-05 -3.8 3.7
                        CHANNELS 6 Xposition Yposition Zposition Zrotation Xrotation Yrotation
                        JOINT LeftHandThumb3
                        {
                          OFFSET 0 -3 2.7
                          CHANNELS 6 Xposition Yposition Zposition Zrotation Xrotation Yrotation
                          End Site
                          {
                            OFFSET 0 -2.3 1.8
                          }
                        }
                      }
                    }
                    JOINT LeftHandIndex
                    {
                      OFFSET -2.24751e-05 -1.9 1.60001
                      CHANNELS 6 Xposition Yposition Zposition Zrotation Xrotation Yrotation
                      JOINT LeftHandIndex1
                      {
                        OFFSET 0 -8.3 1.9
                        CHANNELS 6 Xposition Yposition Zposition Zrotation Xrotation Yrotation
                        JOINT LeftHandIndex2
                        {
                          OFFSET 0 -4.5 0
                          CHANNELS 6 Xposition Yposition Zposition Zrotation Xrotation Yrotation
                          JOINT LeftHandIndex3
                          {
                            OFFSET 1.19673e-05 -3.4 0
                            CHANNELS 6 Xposition Yposition Zposition Zrotation Xrotation Yrotation
                            End Site
                            {
                              OFFSET 0 -2.6 0
                            }
                          }
                        }
                      }
                    }
                    JOINT LeftHandMiddle
                    {
                      OFFSET -0.250006 -2.2 0.400005
                      CHANNELS 6 Xposition Yposition Zposition Zrotation Xrotation Yrotation
                      JOINT LeftHandMiddle1
                      {
                        OFFSET 0 -8.3 0.999998
                        CHANNELS 6 Xposition Yposition Zposition Zrotation Xrotation Yrotation
                        JOINT LeftHandMiddle2
                        {
                          OFFSET 0 -4.65001 0
                          CHANNELS 6 Xposition Yposition Zposition Zrotation Xrotation Yrotation
                          JOINT LeftHandMiddle3
                          {
                            OFFSET 0 -3.29999 0
                            CHANNELS 6 Xposition Yposition Zposition Zrotation Xrotation Yrotation
                            End Site
                            {
                              OFFSET 0 -2.70001 0
                            }
                          }
                        }
                      }
                    }
                    JOINT LeftHandRing
                    {
                      OFFSET -0.500003 -2.15 -0.799999
                      CHANNELS 6 Xposition Yposition Zposition Zrotation Xrotation Yrotation
                      JOINT LeftHandRing1
                      {
                        OFFSET 0 -7.75 -0.2
                        CHANNELS 6 Xposition Yposition Zposition Zrotation Xrotation Yrotation
                        JOINT LeftHandRing2
                        {
                          OFFSET 0 -3.79999 0
                          CHANNELS 6 Xposition Yposition Zposition Zrotation Xrotation Yrotation
                          JOINT LeftHandRing3
                          {
                            OFFSET 0 -3.40001 0
                            CHANNELS 6 Xposition Yposition Zposition Zrotation Xrotation Yrotation
                            End Site
                            {
                              OFFSET 0 -2.6 0
                            }
                          }
                        }
                      }
                    }
                    JOINT LeftHandPinky
                    {
                      OFFSET -0.750005 -1.75 -1.85
                      CHANNELS 6 Xposition Yposition Zposition Zrotation Xrotation Yrotation
                      JOINT LeftHandPinky1
                      {
                        OFFSET -1.33229e-05 -7.15 -0.999991
                        CHANNELS 6 Xposition Yposition Zposition Zrotation Xrotation Yrotation
                        JOINT LeftHandPinky2
                        {
                          OFFSET 1.33012e-05 -3 0
                          CHANNELS 6 Xposition Yposition Zposition Zrotation Xrotation Yrotation
                          JOINT LeftHandPinky3
                          {
                            OFFSET 0 -2.35 0
                            CHANNELS 6 Xposition Yposition Zposition Zrotation Xrotation Yrotation
                            End Site
                            {
                              OFFSET 0 -2.1 0
                            }
                          }
                        }
                      }
                    }
                  }
                }
              }
            }
          }
          JOINT RightShoulder
          {
            OFFSET -4.99994 17 0.000156589
            CHANNELS 6 Xposition Yposition Zposition Zrotation Xrotation Yrotation
            JOINT RightShoulder2
            {
              OFFSET -6.5 0 0
              CHANNELS 6 Xposition Yposition Zposition Zrotation Xrotation Yrotation
              JOINT RightArm
              {
                OFFSET -6.49999 0 -1.56544e-05
                CHANNELS 6 Xposition Yposition Zposition Zrotation Xrotation Yrotation
                JOINT RightForeArm
                {
                  OFFSET -1.13935e-05 -37.9535 -2
                  CHANNELS 6 Xposition Yposition Zposition Zrotation Xrotation Yrotation
                  JOINT RightHand
                  {
                    OFFSET 0 -30.0465 2
                    CHANNELS 6 Xposition Yposition Zposition Zrotation Xrotation Yrotation
                    JOINT RightHandThumb1
                    {
                      OFFSET 0.499989 -1.5 2.65
                      CHANNELS 6 Xposition Yposition Zposition Zrotation Xrotation Yrotation
                      JOINT RightHandThumb2
                      {
                        OFFSET 0 -3.8 3.7
                        CHANNELS 6 Xposition Yposition Zposition Zrotation Xrotation Yrotation
                        JOINT RightHandThumb3
                        {
                          OFFSET 0 -3 2.7
                          CHANNELS 6 Xposition Yposition Zposition Zrotation Xrotation Yrotation
                          End Site
                          {
                            OFFSET -1.01485e-05 -2.29999 1.8
                          }
                        }
                      }
                    }
                    JOINT RightHandIndex
                    {
                      OFFSET 0 -1.9 1.6
                      CHANNELS 6 Xposition Yposition Zposition Zrotation Xrotation Yrotation
                      JOINT RightHandIndex1
                      {
                        OFFSET 0 -8.29999 1.9
                        CHANNELS 6 Xposition Yposition Zposition Zrotation Xrotation Yrotation
                        JOINT RightHandIndex2
                        {
                          OFFSET 0 -4.5 0
                          CHANNELS 6 Xposition Yposition Zposition Zrotation Xrotation Yrotation
                          JOINT RightHandIndex3
                          {
                            OFFSET -1.07656e-05 -3.4 0
                            CHANNELS 6 Xposition Yposition Zposition Zrotation Xrotation Yrotation
                            End Site
                            {
                              OFFSET 0 -2.6 0
                            }
                          }
                        }
                      }
                    }
                    JOINT RightHandMiddle
                    {
                      OFFSET 0.250002 -2.2 0.399998
                      CHANNELS 6 Xposition Yposition Zposition Zrotation Xrotation Yrotation
                      JOINT RightHandMiddle1
                      {
                        OFFSET 0 -8.3 1
                        CHANNELS 6 Xposition Yposition Zposition Zrotation Xrotation Yrotation
                        JOINT RightHandMiddle2
                        {
                          OFFSET 0 -4.65 0
                          CHANNELS 6 Xposition Yposition Zposition Zrotation Xrotation Yrotation
                          JOINT RightHandMiddle3
                          {
                            OFFSET 0 -3.3 0
                            CHANNELS 6 Xposition Yposition Zposition Zrotation Xrotation Yrotation
                            End Site
                            {
                              OFFSET 0 -2.70001 0
                            }
                          }
                        }
                      }
                    }
                    JOINT RightHandRing
                    {
                      OFFSET 0.499998 -2.15 -0.800001
                      CHANNELS 6 Xposition Yposition Zposition Zrotation Xrotation Yrotation
                      JOINT RightHandRing1
                      {
                        OFFSET 0 -7.75 -0.200001
                        CHANNELS 6 Xposition Yposition Zposition Zrotation Xrotation Yrotation
                        JOINT RightHandRing2
                        {
                          OFFSET 0 -3.8 0
                          CHANNELS 6 Xposition Yposition Zposition Zrotation Xrotation Yrotation
                          JOINT RightHandRing3
                          {
                            OFFSET 0 -3.4 0
                            CHANNELS 6 Xposition Yposition Zposition Zrotation Xrotation Yrotation
                            End Site
                            {
                              OFFSET 0 -2.6 0
                            }
                          }
                        }
                      }
                    }
                    JOINT RightHandPinky
                    {
                      OFFSET 0.749994 -1.75 -1.85
                      CHANNELS 6 Xposition Yposition Zposition Zrotation Xrotation Yrotation
                      JOINT RightHandPinky1
                      {
                        OFFSET 0 -7.15 -0.999998
                        CHANNELS 6 Xposition Yposition Zposition Zrotation Xrotation Yrotation
                        JOINT RightHandPinky2
                        {
                          OFFSET 0 -3 0
                          CHANNELS 6 Xposition Yposition Zposition Zrotation Xrotation Yrotation
                          JOINT RightHandPinky3
                          {
                            OFFSET 0 -2.35 0
                            CHANNELS 6 Xposition Yposition Zposition Zrotation Xrotation Yrotation
                            End Site
                            {
                              OFFSET 0 -2.1 0
                            }
                          }
                        }
                      }
                    }
                  }
                }
              }
            }
          }
        }
      }
    }
  }
  JOINT LeftUpLeg
  {
    OFFSET 10 0 -1.20853e-05
    CHANNELS 6 Xposition Yposition Zposition Zrotation Xrotation Yrotation
    JOINT LeftLeg
    {
      OFFSET 0 -49.4477 -0.999992
      CHANNELS 6 Xposition Yposition Zposition Zrotation Xrotation Yrotation
      JOINT LeftFoot
      {
        OFFSET 0 -45.0523 -2
        CHANNELS 6 Xposition Yposition Zposition Zrotation Xrotation Yrotation
        JOINT LeftToeBase
        {
          OFFSET 0 -7.5 12.5
          CHANNELS 6 Xposition Yposition Zposition Zrotation Xrotation Yrotation
          JOINT LeftFootToe
          {
            OFFSET 0 0 4
            CHANNELS 6 Xposition Yposition Zposition Zrotation Xrotation Yrotation
            End Site
            {
              OFFSET 0 0 0
            }
          }
        }
      }
    }
  }
  JOINT RightUpLeg
  {
    OFFSET -10 0 0
    CHANNELS 6 Xposition Yposition Zposition Zrotation Xrotation Yrotation
    JOINT RightLeg
    {
      OFFSET 0 -49.4477 -0.999999
      CHANNELS 6 Xposition Yposition Zposition Zrotation Xrotation Yrotation
      JOINT RightFoot
      {
        OFFSET 1.29782e-05 -45.0524 -2
        CHANNELS 6 Xposition Yposition Zposition Zrotation Xrotation Yrotation
        JOINT RightToeBase
        {
          OFFSET 0 -7.5 12.5
          CHANNELS 6 Xposition Yposition Zposition Zrotation Xrotation Yrotation
          JOINT RightFootToe
          {
            OFFSET 0 0 4
            CHANNELS 6 Xposition Yposition Zposition Zrotation Xrotation Yrotation
            End Site
            {
              OFFSET 0 0 0
            }
          }
        }
      }
    }
  }
}
MOTION
Frames:	3
Frame Time:	0.0111111
114.045 101.277 -40.2869 -6.32049 12.1006 -8.97095 -1.42109e-14 6.79575 0 -4.94081 3.69215 12.7773 0 6.79575 0 1.71236 4.58113 5.0924 0 6.79575 0 -1.74686 5.76327 10.7369 1.42109e-14 6.79575 0 -2.11152 11.3434 6.62841 1.42109e-14 14.441 0 -5.57458 1.25435 6.8071 0 9.17427 7.10543e-15 -13.2208 1.87262 16.0871 5 17 -1.42109e-14 1.08099 -0.0789003 -7.90162 6.5 2.84217e-14 2.84217e-14 1.08077 -0.0804043 -7.90154 6.5 2.84217e-14 0 25.8143 -35.7432 21.1397 0 -37.9535 -2 2.3451 -44.5606 19.2488 0 -30.0465 2 16.2868 0.429544 -6.72347 -0.5 -1.5 2.65 -0.234963 6.22959 -3.16117 0 -3.8 3.7 0.330172 0.576041 0.0699143 0 -3 2.7 0.0338468 1.88172 -0.0328806 -2.84217e-14 -1.9 1.6 1.31999e-06 3.71791e-06 1.1734e-07 0 -8.3 1.9 -0.116997 -2.93224 -0.0087032 -2.84217e-14 -4.5 1.42109e-14 -3.0363e-06 0.00402114 0.00495441 -2.84217e-14 -3.4 1.42109e-14 -4.73055e-05 0.00405481 0.00495871 -0.25 -2.2 0.4 1.31999e-06 3.71791e-06 1.1734e-07 2.84217e-14 -8.3 1 -4.0002 -2.03028 -0.051704 0 -4.65 0 -0.000122014 1.66421e-06 1.11191e-06 0 -3.3 1.42109e-14 -3.18055e-15 6.36111e-15 -3.18055e-15 -0.5 -2.15 -0.8 1.31999e-06 3.71791e-06 1.1734e-07 0 -7.75 -0.2 -4.58159 2.92895 0.157157 0 -3.8 1.42109e-14 -8.19317e-05 0.00384319 0.00329878 -2.84217e-14 -3.4 0 9.05357e-06 0.00381661 0.00326885 -0.75 -1.75 -1.85 1.31999e-06 3.71791e-06 1.1734e-07 0 -7.15 -1 -3.79199 -9.2342 -0.109744 0 -3 -1.42109e-14 -1.05728 -0.153933 -0.00085355 0 -2.35 0 -1.04196 0.137313 0.0608992 -5 17 0 -5.91935 -0.529951 10.2202 -6.5 0 -1.42109e-14 -5.91898 -0.529751 10.22 -6.5 0 -7.10543e-15 -17.5208 -59.4062 21.6635 0 -37.9535 -2 -9.04266 -5.72991 -4.15867 7.10543e-15 -30.0465 2 -17.2747 -18.9157 47.5394 0.5 -1.5 2.65 -4.79275 -4.00379 -9.363 0 -3.8 3.7 0.00442173 8.0359 -0.00502851 1.42109e-14 -3 2.7 0.00993227 -0.0767457 -0.0144475 1.42109e-14 -1.9 1.6 -4.08249e-06 -3.2242e-06 -2.88504e-06 -1.42109e-14 -8.3 1.9 3.18304 -12.0057 0.2572 1.42109e-14 -4.5 -1.42109e-14 -0.0512337 3.92546e-07 -0.00451451 1.42109e-14 -3.4 1.42109e-14 -0.17861 -4.67171e-06 0.00557578 0.25 -2.2 0.4 -4.08249e-06 -3.2242e-06 -2.88504e-06 0 -8.3 1 6.2843 -10.6488 0.443561 0 -4.65 2.84217e-14 0.00798509 -9.10642e-07 -8.61856e-06 -1.42109e-14 -3.3 0 0.00797335 -3.45806e-06 2.55727e-06 0.5 -2.15 -0.8 -4.08249e-06 -3.2242e-06 -2.88504e-06 0 -7.75 -0.2 6.12416 -13.9551 0.401895 0 -3.8 -1.42109e-14 -0.000400227 -0.00821365 -0.000497037 1.42109e-14 -3.4 0 -1.53709e-05 0.00428957 -0.000114156 0.75 -1.75 -1.85 -4.08249e-06 -3.2242e-06 -2.88504e-06 0 -7.15 -1 3.78904 -13.3019 0.0335312 0 -3 0 0.000124345 -4.90478e-07 -2.86055e-06 1.42109e-14 -2.35 -1.42109e-14 -0 0 9.54166e-15 10 0 0 8.24454 -28.2767 -16.7117 0 -49.4477 -1 -0.116311 16.7918 1.1241 0 -45.0523 -2 -4.80054 0.0170774 21.2197 0 -7.5 12.5 2.12594e-14 -9.70628e-20 7.95139e-16 1.42109e-14 2.1684e-19 4 4.42197 -3.41483 -0.0140961 -10 0 -1.42109e-14 -24.7913 -55.2283 -4.97352 0 -49.4477 -1 101.186 79.6635 -113.374 3.55271e-15 -45.0523 -2 -17.9629 -50.1994 52.7589 0 -7.5 12.5 5.33371e-11 0 -9.39835e-10 0 0 4 0.000630681 0.00600522 0.00386118 
114.045 101.294 -40.2352 -6.33263 12.1007 -8.95137 -1.42109e-14 6.79575 0 -4.92637 3.67373 12.7482 1.42109e-14 6.79575 0 1.7104 4.57671 5.06769 -1.42109e-14 6.79575 0 -1.73137 5.77048 10.7348 -1.42109e-14 6.79575 0 -2.08019 11.3438 6.62795 1.42109e-14 14.441 0 -5.57789 1.25651 6.81531 0 9.17427 7.10543e-15 -13.2296 1.87691 16.1069 5 17 1.42109e-14 1.08573 -0.0789209 -7.91299 6.5 1.42109e-14 1.42109e-14 1.08524 -0.0802254 -7.9125 6.5 1.42109e-14 0 25.893 -35.8008 21.1742 0 -37.9535 -2 2.65786 -44.5448 19.3604 2.84217e-14 -30.0465 2 16.2212 0.644158 -7.30418 -0.5 -1.5 2.65 -0.340052 6.43431 -3.21053 -2.84217e-14 -3.8 3.7 0.33326 0.613635 0.0714629 2.84217e-14 -3 2.7 0.0337456 1.94962 -0.0328028 -2.84217e-14 -1.9 1.6 1.31999e-06 3.71791e-06 1.1734e-07 2.84217e-14 -8.3 1.9 -0.107692 -2.81941 -0.00870233 0 -4.5 -1.42109e-14 -3.0363e-06 0.00402114 0.00495441 0 -3.4 1.42109e-14 -4.73055e-05 0.00405481 0.00495871 -0.25 -2.2 0.4 1.31999e-06 3.71791e-06 1.1734e-07 0 -8.3 1 -3.96896 -1.97156 -0.0495352 0 -4.65 0 -0.000122014 1.66421e-06 1.11191e-06 0 -3.3 -1.42109e-14 -6.36111e-15 -3.18055e-15 -0 -0.5 -2.15 -0.8 1.31999e-06 3.71791e-06 1.1734e-07 0 -7.75 -0.2 -4.56054 3.01207 0.160507 0 -3.8 0 -8.19317e-05 0.00384319 0.00329878 2.84217e-14 -3.4 0 9.05357e-06 0.00381661 0.00326885 -0.75 -1.75 -1.85 1.31999e-06 3.71791e-06 1.1734e-07 0 -7.15 -1 -3.74737 -9.18908 -0.107065 2.84217e-14 -3 1.42109e-14 -1.10516 -0.153421 -0.00085355 0 -2.35 0 -1.08833 0.137243 0.0608992 -5 17 0 -5.88932 -0.527016 10.2034 -6.5 0 1.42109e-14 -5.88903 -0.525454 10.2031 -6.5 2.84217e-14 -7.10543e-15 -17.1648 -59.3185 21.8272 3.55271e-15 -37.9535 -2 -9.06373 -5.68511 -4.05056 1.77636e-15 -30.0465 2 -17.3397 -18.9287 47.5405 0.5 -1.5 2.65 -4.79348 -4.00139 -9.34684 1.42109e-14 -3.8 3.7 0.00487056 8.02208 -0.00505014 0 -3 2.7 0.00993227 -0.0769961 -0.0143984 0 -1.9 1.6 -4.08249e-06 -3.2242e-06 -2.88504e-06 0 -8.3 1.9 3.17986 -11.9918 0.25571 -1.42109e-14 -4.5 0 -0.0515655 3.92546e-07 -0.00451451 -1.42109e-14 -3.4 0 -0.178698 -4.67171e-06 0.00557578 0.25 -2.2 0.4 -4.08249e-06 -3.2242e-06 -2.88504e-06 1.42109e-14 -8.3 1 6.25779 -10.6355 0.440628 0 -4.65 0 0.00798509 -9.10642e-07 -8.61856e-06 1.42109e-14 -3.3 0 0.00797335 -3.45806e-06 2.55727e-06 0.5 -2.15 -0.8 -4.08249e-06 -3.2242e-06 -2.88504e-06 0 -7.75 -0.2 6.12887 -13.9401 0.402143 0 -3.8 1.42109e-14 -0.000396075 -0.00821365 -0.000497037 0 -3.4 -2.84217e-14 -1.50491e-05 0.00428957 -0.000114156 0.75 -1.75 -1.85 -4.08249e-06 -3.2242e-06 -2.88504e-06 1.42109e-14 -7.15 -1 3.7772 -13.2607 0.0338248 0 -3 -1.42109e-14 0.000124345 -4.90478e-07 -2.86055e-06 -1.42109e-14 -2.35 1.42109e-14 4.77083e-15 -6.36111e-15 6.36111e-15 10 0 0 8.21518 -28.2127 -16.9133 0 -49.4477 -1 -0.115388 16.7331 1.11893 -1.42109e-14 -45.0523 -2 -4.80602 0.00658907 21.6137 0 -7.5 12.5 2.12594e-14 -9.70628e-20 7.95139e-16 0 1.0842e-19 4 4.42066 -3.40802 -0.0387315 -10 1.42109e-14 0 -24.7817 -55.1659 -5.01066 0 -49.4477 -1 101.112 79.7005 -113.262 -7.10543e-15 -45.0523 -2 -18.049 -50.2391 52.6413 -7.10543e-15 -7.5 12.5 5.33482e-11 0 -9.39825e-10 0 1.42109e-14 4 0.000683434 0.00603093 0.00384968 
114.045 101.309 -40.1878 -6.34416 12.1016 -8.92706 -1.42109e-14 6.79575 0 -4.91469 3.65916 12.7157 1.42109e-14 6.79575 0 1.70811 4.57179 5.04361 0 6.79575 1.42109e-14 -1.71412 5.77668 10.731 1.42109e-14 6.79575 -7.10543e-15 -2.05326 11.3441 6.63216 -1.42109e-14 14.441 0 -5.58143 1.25781 6.82339 0 9.17427 0 -13.2393 1.88036 16.1265 5 17 0 1.09507 -0.0791217 -7.92864 6.5 1.42109e-14 1.42109e-14 1.09458 -0.0800712 -7.92841 6.5 0 0 25.9818 -35.8824 21.2226 2.84217e-14 -37.9535 -2 2.96231 -44.5025 19.4639 2.84217e-14 -30.0465 2 16.1447 0.850537 -7.88735 -0.5 -1.5 2.65 -0.446838 6.66401 -3.25121 -2.84217e-14 -3.8 3.7 0.336637 0.651589 0.0732709 0 -3 2.7 0.0336479 2.02317 -0.0327247 0 -1.9 1.6 1.31999e-06 3.71791e-06 1.1734e-07 0 -8.3 1.9 -0.0981735 -2.70137 -0.00870147 -2.84217e-14 -4.5 1.42109e-14 -3.0363e-06 0.00402114 0.00495441 -2.84217e-14 -3.4 -1.42109e-14 -4.73055e-05 0.00405481 0.00495871 -0.25 -2.2 0.4 1.31999e-06 3.71791e-06 1.1734e-07 0 -8.3 1 -3.93869 -1.90347 -0.0472251 -2.84217e-14 -4.65 -1.42109e-14 -0.000122014 1.66421e-06 1.11191e-06 0 -3.3 0 -1.27222e-14 0 -9.54166e-15 -0.5 -2.15 -0.8 1.31999e-06 3.71791e-06 1.1734e-07 0 -7.75 -0.2 -4.54198 3.09766 0.16429 -2.84217e-14 -3.8 0 -8.19317e-05 0.00384319 0.00329878 -2.84217e-14 -3.4 0 9.05357e-06 0.00381661 0.00326885 -0.75 -1.75 -1.85 1.31999e-06 3.71791e-06 1.1734e-07 0 -7.15 -1 -3.6945 -9.13011 -0.103747 2.84217e-14 -3 0 -1.15694 -0.15291 -0.00085355 -2.84217e-14 -2.35 0 -1.13844 0.137173 0.0608992 -5 17 1.42109e-14 -5.86077 -0.52455 10.1872 -6.5 2.84217e-14 7.10543e-15 -5.86136 -0.523614 10.1874 -6.5 0 -1.06581e-14 -16.8142 -59.239 21.9859 -3.55271e-15 -37.9535 -2 -9.08658 -5.63925 -3.93447 5.32907e-15 -30.0465 2 -17.4278 -18.927 47.5159 0.5 -1.5 2.65 -4.79463 -4.00524 -9.33238 0 -3.8 3.7 0.00533095 8.01454 -0.00507489 0 -3 2.7 0.00993227 -0.0772436 -0.0143492 0 -1.9 1.6 -4.08249e-06 -3.2242e-06 -2.88504e-06 0 -8.3 1.9 3.17837 -11.98 0.254311 -1.42109e-14 -4.5 0 -0.0518966 3.92546e-07 -0.00451451 0 -3.4 1.42109e-14 -0.178783 -4.67171e-06 0.00557578 0.25 -2.2 0.4 -4.08249e-06 -3.2242e-06 -2.88504e-06 0 -8.3 1 6.23285 -10.6203 0.437715 -1.42109e-14 -4.65 0 0.00798509 -9.10642e-07 -8.61856e-06 0 -3.3 1.42109e-14 0.00797335 -3.45806e-06 2.55727e-06 0.5 -2.15 -0.8 -4.08249e-06 -3.2242e-06 -2.88504e-06 0 -7.75 -0.2 6.13566 -13.9194 0.40231 1.42109e-14 -3.8 1.42109e-14 -0.000391829 -0.00821365 -0.000497037 0 -3.4 -2.84217e-14 -1.47246e-05 0.00428957 -0.000114156 0.75 -1.75 -1.85 -4.08249e-06 -3.2242e-06 -2.88504e-06 1.42109e-14 -7.15 -1 3.76713 -13.2169 0.0341139 -1.42109e-14 -3 0 0.000124345 -4.90478e-07 -2.86055e-06 -1.42109e-14 -2.35 -2.84217e-14 -6.36111e-15 0 3.18055e-15 10 -1.42109e-14 0 8.18555 -28.1533 -17.1081 1.42109e-14 -49.4477 -1 -0.114494 16.6727 1.114 2.84217e-14 -45.0523 -2 -4.81087 0.000940154 22.0042 0 -7.5 12.5 2.12594e-14 4.85314e-20 -0 -1.42109e-14 0 4 4.42767 -3.39428 0.0756828 -10 -1.42109e-14 0 -24.7783 -55.1046 -5.05295 7.10543e-15 -49.4477 -1 101.031 79.7366 -113.143 0 -45.0523 -2 -18.1315 -50.2768 52.5302 0 -7.5 12.5 5.33427e-11 3.18055e-15 -9.39832e-10 0 0 4 0.000736223 0.00605658 0.0038377 
